<?xml version="1.0" encoding="UTF-8"?>
<svg version="1.1" viewBox="0 0 744.09 1052.4" xmlns="http://www.w3.org/2000/svg">
 <path d="m120 172.38v540h30v20h40v-20h220v20h40v-20h30v-540h-360zm28.875 30h301.12v80h-301.12v-80zm0 100h301.12v80h-301.12v-80zm0 100h301.12v80h-301.12v-80zm0 100h301.12v80h-301.12v-80zm0 100h301.12v80.031h-301.12v-80.031z"/>
 <rect x="150" y="205.36" width="20" height="75" fill="#008000"/>
 <rect x="172" y="210.36" width="20" height="70" fill="#008000"/>
 <rect x="194" y="205.36" width="14" height="75" fill="#800000"/>
 <rect x="210" y="205.36" width="16" height="75" fill="#000080"/>
 <rect x="228" y="203.36" width="16" height="77" fill="#800000"/>
 <rect x="246" y="212.36" width="22" height="68" fill="#800000"/>
 <rect x="270" y="209.36" width="20" height="71" fill="#008000"/>
 <rect transform="matrix(.89629 -.44347 .44347 .89629 0 0)" x="166.08" y="321.43" width="17" height="75" fill="#800000"/>
 <rect x="340" y="260.36" width="80" height="20" fill="#000080"/>
 <rect x="356" y="238.36" width="60" height="20" fill="#800000"/>
 <rect transform="scale(-1,1)" x="-445.71" y="305.93" width="20" height="75" fill="#800000"/>
 <rect transform="scale(-1,1)" x="-423.71" y="310.93" width="20" height="70" fill="#800000"/>
 <rect transform="scale(-1,1)" x="-401.71" y="305.93" width="14" height="75" fill="#800000"/>
 <rect transform="scale(-1,1)" x="-385.71" y="305.93" width="16" height="75" fill="#008000"/>
 <rect transform="scale(-1,1)" x="-367.71" y="303.93" width="16" height="77" fill="#000080"/>
 <rect transform="scale(-1,1)" x="-349.71" y="312.93" width="22" height="68" fill="#800000"/>
 <rect transform="scale(-1,1)" x="-325.71" y="309.93" width="20" height="71" fill="#800000"/>
 <rect transform="scale(-1,1)" x="-303.14" y="305.93" width="14" height="75" fill="#000080"/>
 <rect transform="scale(-1,1)" x="-287.14" y="305.93" width="16" height="75" fill="#000080"/>
 <rect transform="scale(-1,1)" x="-269.14" y="303.93" width="13" height="77" fill="#000080"/>
 <rect x="196.29" y="305.93" width="20" height="75" fill="#800000"/>
 <rect x="218.29" y="310.93" width="20" height="70" fill="#800000"/>
 <rect x="240.29" y="305.93" width="14" height="75" fill="#000080"/>
 <rect x="150.29" y="312.93" width="22" height="68" fill="#800000"/>
 <rect x="174.29" y="309.93" width="20" height="71" fill="#000080"/>
 <rect x="329.14" y="505.93" width="20" height="75" fill="#800000"/>
 <rect transform="matrix(.92169 -.38792 .38792 .92169 0 0)" x="121.61" y="611.79" width="13.321" height="69.529" fill="#008000"/>
 <rect x="389.14" y="515.93" width="16" height="65" fill="#800000"/>
 <rect x="407.14" y="503.93" width="16" height="77" fill="#008000"/>
 <rect x="425.14" y="508.93" width="22" height="72" fill="#000080"/>
 <rect transform="scale(-1,1)" x="-327.13" y="509.93" width="21" height="71" fill="#000080"/>
 <rect transform="scale(-1,1)" x="-304.57" y="505.93" width="14" height="75" fill="#000080"/>
 <rect transform="scale(-1,1)" x="-288.57" y="516.93" width="16" height="64" fill="#800000"/>
 <rect transform="scale(-1,1)" x="-270.57" y="503.93" width="13" height="77" fill="#800000"/>
 <rect transform="scale(-1,1)" x="-255.71" y="510.93" width="20" height="70" fill="#800000"/>
 <rect transform="scale(-1,1)" x="-233.71" y="510.93" width="20" height="70" fill="#000080"/>
 <rect transform="scale(-1,1)" x="-211.71" y="515.93" width="14" height="65" fill="#800000"/>
 <rect transform="scale(-1,1)" x="-195.71" y="505.93" width="22" height="75" fill="#800000"/>
 <rect transform="scale(-1,1)" x="-171.71" y="509.93" width="20" height="71" fill="#008000"/>
 <rect x="404.86" y="405.93" width="20" height="75" fill="#008000"/>
 <rect x="426.86" y="410.93" width="20" height="70" fill="#008000"/>
 <rect transform="scale(-1,1)" x="-402.86" y="409.93" width="20" height="71" fill="#800000"/>
 <rect transform="scale(-1,1)" x="-380.29" y="405.93" width="14" height="75" fill="#008000"/>
 <rect transform="scale(-1,1)" x="-364.29" y="416.93" width="16" height="64" fill="#008000"/>
 <rect transform="scale(-1,1)" x="-346.29" y="403.93" width="13" height="77" fill="#800000"/>
 <rect transform="matrix(.91165 .41096 -.41096 .91165 0 0)" x="455.71" y="240.13" width="17" height="75" fill="#800000"/>
 <rect transform="matrix(.91165 .41096 -.41096 .91165 0 0)" x="436.55" y="248.76" width="17" height="75" fill="#008000"/>
 <rect transform="matrix(-.86913 -.49459 -.49459 .86913 0 0)" x="-459.01" y="227.39" width="14" height="65" fill="#800000"/>
 <rect x="150" y="474.36" width="90" height="6" fill="#800000"/>
 <rect x="150" y="466.36" width="90" height="6" fill="#800000"/>
 <rect x="150" y="458.36" width="90" height="6" fill="#008000"/>
 <rect x="155.99" y="444.35" width="80" height="12" fill="#008000"/>
 <rect x="425.89" y="608.94" width="20" height="72" fill="#008000"/>
 <rect transform="scale(-1,1)" x="-423.71" y="610.95" width="20" height="70" fill="#008000"/>
 <rect transform="scale(-1,1)" x="-401.71" y="605.95" width="14" height="75" fill="#800000"/>
 <rect transform="scale(-1,1)" x="-385.71" y="605.95" width="16" height="75" fill="#800000"/>
 <rect transform="scale(-1,1)" x="-367.71" y="609.95" width="16" height="71" fill="#800000"/>
 <rect transform="scale(-1,1)" x="-349.71" y="622.95" width="22" height="58" fill="#000080"/>
 <rect transform="scale(-1,1)" x="-325.7" y="609.95" width="21" height="71" fill="#800000"/>
 <rect transform="scale(-1,1)" x="-303.14" y="605.95" width="14" height="75" fill="#008000"/>
 <rect transform="scale(-1,1)" x="-287.14" y="605.95" width="16" height="75" fill="#008000"/>
 <rect transform="scale(-1,1)" x="-269.14" y="613.95" width="13" height="67" fill="#800000"/>
 <rect transform="scale(-1,1)" x="-208.29" y="620.95" width="20" height="60" fill="#008000"/>
 <rect transform="scale(-1,1)" x="-186.29" y="610.95" width="20" height="70" fill="#000080"/>
 <rect transform="scale(-1,1)" x="-164.29" y="605.95" width="14" height="75" fill="#800000"/>
 <rect transform="scale(-1,1)" x="-254.29" y="612.95" width="22" height="68" fill="#800000"/>
 <rect transform="scale(-1,1)" x="-230.29" y="609.95" width="20" height="71" fill="#000080"/>
</svg>
